<?xml version="1.0" encoding="utf-8"?><!-- Uploaded to: SVG Repo, www.svgrepo.com, Generator: SVG Repo Mixer Tools -->
<svg width="800px" height="800px" viewBox="0 0 24 24" fill="none" xmlns="http://www.w3.org/2000/svg">
<path fill-rule="evenodd" clip-rule="evenodd" d="M12.0972 2.53039C12.2913 2.8649 12.2752 3.28136 12.0557 3.5998C11.3898 4.56594 11 5.73595 11 7.00002C11 10.3137 13.6863 13 17 13C18.2641 13 19.4341 12.6102 20.4002 11.9443C20.7187 11.7249 21.1351 11.7087 21.4696 11.9028C21.8041 12.0969 21.9967 12.4665 21.9642 12.8519C21.5313 17.9765 17.236 22 12 22C6.47715 22 2 17.5229 2 12C2 6.76398 6.02351 2.46874 11.1481 2.03585C11.5335 2.0033 11.9031 2.19588 12.0972 2.53039ZM9.42424 4.42352C6.26994 5.49553 4 8.48306 4 12C4 16.4183 7.58172 20 12 20C15.517 20 18.5045 17.7301 19.5765 14.5758C18.7676 14.8508 17.9008 15 17 15C12.5817 15 9 11.4183 9 7.00002C9 6.09922 9.1492 5.2324 9.42424 4.42352Z" fill="#000000"/>
</svg>